<?xml version="1.0" encoding="utf-8"?>
<!-- Generator: Adobe Illustrator 16.0.3, SVG Export Plug-In . SVG Version: 6.00 Build 0)  -->
<!DOCTYPE svg PUBLIC "-//W3C//DTD SVG 1.1//EN" "http://www.w3.org/Graphics/SVG/1.1/DTD/svg11.dtd">
<svg version="1.1" id="data_1_" xmlns="http://www.w3.org/2000/svg" xmlns:xlink="http://www.w3.org/1999/xlink" x="0px" y="0px"
	 width="43px" height="43px" viewBox="68.5 68.5 43 43" enable-background="new 68.5 68.5 43 43" xml:space="preserve">
<g id="data">
	<g>
		<path fill="#FFFFFF" d="M106.484,106.508c-0.82-5.838-4.61-10.653-9.834-12.906c3.072-2.049,5.02-5.532,5.02-9.527
			c0-6.453-5.225-11.575-11.678-11.575c-6.454,0-11.576,5.122-11.576,11.473c0,3.995,2.049,7.477,5.02,9.526
			c-5.122,2.253-8.912,7.067-9.834,12.804c-0.102,0.205-0.102,0.41-0.102,0.615v0.102c0,0.922,0.717,1.639,1.639,1.639
			s1.639-0.717,1.639-1.639l0,0l0,0c0.819-6.35,6.146-11.369,12.702-11.574c0.103,0,0.308,0,0.409,0c0.104,0,0.309,0,0.41,0
			c6.556,0.205,11.984,5.121,12.701,11.574l0,0l0,0c0,0.922,0.718,1.639,1.64,1.639s1.639-0.717,1.639-1.639v-0.102
			C106.586,106.713,106.484,106.61,106.484,106.508z M89.992,92.27c-4.61,0-8.297-3.687-8.297-8.195
			c0-4.507,3.688-8.194,8.297-8.194c4.609,0,8.297,3.688,8.297,8.194C98.289,88.583,94.602,92.27,89.992,92.27z"/>
	</g>
</g>
</svg>
