<?xml version="1.0" encoding="utf-8"?>
<!-- Generator: Adobe Illustrator 16.0.3, SVG Export Plug-In . SVG Version: 6.00 Build 0)  -->
<!DOCTYPE svg PUBLIC "-//W3C//DTD SVG 1.1//EN" "http://www.w3.org/Graphics/SVG/1.1/DTD/svg11.dtd">
<svg version="1.1" id="favourite_1_" xmlns="http://www.w3.org/2000/svg" xmlns:xlink="http://www.w3.org/1999/xlink" x="0px"
	 y="0px" width="43px" height="43px" viewBox="68.5 68.5 43 43" enable-background="new 68.5 68.5 43 43" xml:space="preserve">
<g id="favourite">
	<g>
		<path fill="#FFFFFF" d="M98.887,104.277L98.887,104.277L90,100.339l-9.291,4.443l1.414-10.402l-6.564-7.068l9.695-2.121
			l4.848-8.684v-0.203l4.947,8.786l9.896,2.122l-6.765,7.271l0.403,3.937l0.303,0.104c-0.203,0.402-0.203,0.807-0.101,1.312v0.202
			c0.302,0.908,1.312,1.414,2.12,1.11c0.505-0.202,0.808-0.606,1.01-1.011l0.201,0.103l-0.1-0.909v-0.101l-0.403-3.131l8.886-9.695
			c0-0.706-0.303-1.313-0.809-1.717l-12.623-2.625l-6.463-12.019c-0.404-0.1-0.909-0.1-1.313,0L82.83,82.061l-12.623,2.423
			c-0.403,0.505-0.707,1.011-0.707,1.717l8.886,9.694l-1.615,13.027c0.403,0.505,0.909,0.909,1.515,1.11l11.613-5.555l11.513,5.555
			c0.706-0.201,1.211-0.706,1.615-1.313l-0.303-2.726L98.887,104.277z"/>
	</g>
</g>
</svg>
