<?xml version="1.0" encoding="utf-8"?>
<!-- Generator: Adobe Illustrator 16.0.3, SVG Export Plug-In . SVG Version: 6.00 Build 0)  -->
<!DOCTYPE svg PUBLIC "-//W3C//DTD SVG 1.1//EN" "http://www.w3.org/Graphics/SVG/1.1/DTD/svg11.dtd">
<svg version="1.1" id="home_1_" xmlns="http://www.w3.org/2000/svg" xmlns:xlink="http://www.w3.org/1999/xlink" x="0px" y="0px"
	 width="43px" height="43px" viewBox="68.5 68.5 43 43" enable-background="new 68.5 68.5 43 43" xml:space="preserve">
<g id="home">
	<g>
		<path fill="#FFFFFF" d="M108.115,89.404L90.682,71.969l0,0l0,0l0,0c-0.634-0.634-1.585-0.634-2.219,0l-0.105,0.105L70.922,89.404
			l0,0c-0.105,0.105-0.211,0.317-0.317,0.422c0,0.106-0.105,0.106-0.105,0.211c0,0.107,0,0.107,0,0.211c0,0.212,0,0.317,0,0.529l0,0
			c0.105,0.316,0.211,0.634,0.422,0.845c0.212,0.213,0.529,0.317,0.846,0.422l0,0c0.105,0,0.211,0,0.423,0h2.747
			c1.584,0.107,1.796,0.425,1.902,2.114v-2.114h-0.634h0.634v12.893c0.106,1.69,1.479,3.063,3.169,3.063h1.585h1.585
			c1.796,0,3.17-1.373,3.17-3.169v-1.691l0,0v-2.854v-0.21v0.105V98.49l0,0v1.586c0.105-1.269,0.422-1.586,1.796-1.586h2.432
			c1.479,0.106,1.901,0.317,2.008,1.796V98.49h-0.847h0.847v2.113c0-0.105,0-0.211,0-0.317v0.635v4.121
			c0.104,1.69,1.479,3.063,3.168,3.063h1.586h1.689c1.797,0,3.171-1.373,3.171-3.169v-1.797l0,0V92.044
			c0-0.844-0.74-1.583-1.586-1.583c-0.845,0-1.585,0.739-1.585,1.583v9.722v0.951c0-0.211,0-0.423,0-0.634v2.748l0,0v-2.114
			c0,1.586-0.315,1.902-1.583,2.007c-1.587-0.104-1.587-0.634-1.587-3.168v0.527v-2.007l0,0v-1.691c0-1.796-1.372-3.169-3.169-3.169
			h-1.585l0,0h-3.17l0,0H86.35c-1.69,0-3.17,1.373-3.17,3.169v4.016c0,1.689-0.211,2.219-1.585,2.323
			c-1.163-0.104-1.479-0.421-1.585-1.479v-9.51l0,0v-1.691c0-1.795-1.374-3.169-3.169-3.169h-0.951l13.63-13.63l16.272,16.377
			c0.634,0.634,1.585,0.634,2.219,0C108.645,90.989,108.645,90.037,108.115,89.404z M95.858,104.831h0.74H95.858L95.858,104.831z
			 M80.009,104.831h0.74H80.009L80.009,104.831z M76.84,94.264v1.162C76.84,94.897,76.84,94.581,76.84,94.264z"/>
	</g>
</g>
</svg>
