<?xml version="1.0" encoding="iso-8859-1"?>
<!-- Generator: Adobe Illustrator 16.0.3, SVG Export Plug-In . SVG Version: 6.00 Build 0)  -->
<!DOCTYPE svg PUBLIC "-//W3C//DTD SVG 1.1//EN" "http://www.w3.org/Graphics/SVG/1.1/DTD/svg11.dtd">
<svg version="1.1" id="&#x5716;&#x5C64;_1" xmlns="http://www.w3.org/2000/svg" xmlns:xlink="http://www.w3.org/1999/xlink" x="0px"
	 y="0px" width="39px" height="39px" viewBox="0 0 39 39" style="enable-background:new 0 0 39 39;" xml:space="preserve">
<title>btn1</title>
<g id="_icon">
	<g id="_icon-2">
		<path style="fill:#FFFFFF;" d="M34.521,4.229c-0.72-0.762-1.713-1.203-2.76-1.23c-1.129,0.042-2.201,0.51-3,1.311l-0.65,0.689
			l6,5.701l0.479-0.49c0.854-0.771,1.361-1.853,1.41-3C35.942,6.054,35.405,4.974,34.521,4.229z M13.202,19.91
			c-0.096,0.097-0.165,0.217-0.2,0.35c-0.34,1.24-2,6.75-2,6.799c-0.084,0.281-0.008,0.584,0.2,0.791
			c0.146,0.146,0.343,0.229,0.55,0.229c0.08,0.012,0.161,0.012,0.24,0c0.06,0,5.729-1.86,6.669-2.14
			c0.124-0.035,0.236-0.103,0.33-0.189c0.49-0.48,10.269-10.17,14.12-14l-6-5.701L13.202,19.91z M18.651,29.27l-6.35,1.879
			c-0.371,0.119-0.759,0.181-1.15,0.182c-0.935,0.036-1.84-0.327-2.489-1c-0.974-0.971-1.329-2.398-0.92-3.71
			c1.08-3.55,1.82-6,2-6.709c0.167-0.62,0.491-1.185,0.94-1.64l11.49-11.48H4.961C3.93,6.742,3.053,7.538,3.004,8.569
			C3,8.661,3.002,8.751,3.012,8.841v24.85c-0.119,1.154,0.721,2.186,1.875,2.304C4.911,35.998,4.936,36,4.962,36.002h23.579
			c1.218-0.031,2.187-1.031,2.181-2.25V17.99c-4.421,4.389-10.16,10-10.55,10.37c-0.429,0.423-0.955,0.734-1.531,0.91H18.651
			L18.651,29.27z"/>
	</g>
</g>
</svg>
