<?xml version="1.0" encoding="iso-8859-1"?>
<!-- Generator: Adobe Illustrator 16.0.3, SVG Export Plug-In . SVG Version: 6.00 Build 0)  -->
<!DOCTYPE svg PUBLIC "-//W3C//DTD SVG 1.1//EN" "http://www.w3.org/Graphics/SVG/1.1/DTD/svg11.dtd">
<svg version="1.1" id="&#x5716;&#x5C64;_1" xmlns="http://www.w3.org/2000/svg" xmlns:xlink="http://www.w3.org/1999/xlink" x="0px"
	 y="0px" width="39px" height="39px" viewBox="70.5 70.5 39 39" style="enable-background:new 70.5 70.5 39 39;"
	 xml:space="preserve">
<title>btn3</title>
<g id="_icon">
	<g id="_icon-2">
		<path style="fill:#FFFFFF;" d="M103.717,80.156c-1.209-1.032-2.925-1.223-4.332-0.484c0-1.297,0-2.172,0-2.172H80.517
			c0,0,0,0.844,0,2.12c-1.384-0.691-3.047-0.484-4.22,0.525c-0.854,0.813-0.947,2.326-0.247,4.251
			c0.834,2.306,2.718,4.857,4.869,5.013h0.206c0.293-0.001,0.585-0.046,0.865-0.134c0.176,0.471,0.412,0.916,0.7,1.328
			c1.616,2.191,5.146,1.193,5.363,3.859c0.138,1.348,0.138,2.707,0,4.055c0,1.287-1.894,1.844-3.448,2.79
			c-0.853,0.394-1.393,1.253-1.379,2.192h13.381c0.014-0.939-0.527-1.799-1.38-2.192c-1.554-0.946-3.438-1.503-3.438-2.79
			c-0.138-1.348-0.138-2.707,0-4.055c0.257-2.666,3.736-1.668,5.353-3.859c0.293-0.422,0.532-0.878,0.71-1.359
			c0.307,0.111,0.63,0.171,0.957,0.176h0.206c2.151-0.145,4.035-2.697,4.869-5.013C104.664,82.492,104.572,80.979,103.717,80.156z
			 M80.764,86.959c-1.678-0.823-3.088-4.405-2.728-5.146c0.597-0.566,1.935,0.092,2.687,0.566c0.117,1.56,0.334,3.11,0.648,4.643
			C81.17,87.093,80.947,87.07,80.764,86.959z M99.291,86.959c-0.218,0.131-0.491,0.131-0.709,0c0.302-1.492,0.512-3,0.627-4.519
			c0.73-0.483,2.172-1.235,2.811-0.648C102.379,82.543,100.979,86.136,99.291,86.959z"/>
	</g>
</g>
</svg>
