<?xml version="1.0" encoding="iso-8859-1"?>
<!-- Generator: Adobe Illustrator 16.0.3, SVG Export Plug-In . SVG Version: 6.00 Build 0)  -->
<!DOCTYPE svg PUBLIC "-//W3C//DTD SVG 1.1//EN" "http://www.w3.org/Graphics/SVG/1.1/DTD/svg11.dtd">
<svg version="1.1" id="&#x5716;&#x5C64;_1" xmlns="http://www.w3.org/2000/svg" xmlns:xlink="http://www.w3.org/1999/xlink" x="0px"
	 y="0px" width="39px" height="39px" viewBox="70.5 70.5 39 39" style="enable-background:new 70.5 70.5 39 39;"
	 xml:space="preserve">
<title>btn4</title>
<g id="Article_Icon">
	<g id="Article_Icon-2">
		<path style="fill:#FFFFFF;" d="M100.149,74.5h-20.3c-1.011-0.011-1.839,0.799-1.85,1.81c0,0.01,0,0.021,0,0.03v27.359
			c0.017,1.008,0.843,1.812,1.85,1.801h20.3c1.007,0.011,1.834-0.793,1.851-1.801V76.34c0.005-1.011-0.81-1.834-1.82-1.84
			C100.17,74.5,100.16,74.5,100.149,74.5z M91.85,98.17H82.62c-0.503,0-0.911-0.407-0.911-0.909c0-0.503,0.407-0.91,0.909-0.911
			c0.001,0,0.001,0,0.002,0h9.229c0.503,0,0.91,0.407,0.911,0.909C92.761,97.762,92.354,98.169,91.85,98.17L91.85,98.17z
			 M97.39,92.7H82.62c-0.503,0-0.911-0.407-0.911-0.91c0-0.502,0.407-0.91,0.909-0.91c0.001,0,0.001,0,0.002,0h14.76
			c0.502,0,0.91,0.406,0.91,0.909c0.001,0.503-0.407,0.91-0.909,0.911c-0.001,0-0.001,0-0.001,0H97.39z M97.39,87.229H82.62
			c-0.503,0.001-0.911-0.406-0.911-0.909c0-0.502,0.407-0.91,0.909-0.91c0.001,0,0.001,0,0.002,0h14.76
			c0.502-0.001,0.91,0.406,0.91,0.909c0.001,0.503-0.407,0.91-0.909,0.91c-0.001,0-0.001,0-0.001,0H97.39z M97.39,81.76H82.62
			c-0.503,0.001-0.911-0.406-0.911-0.909s0.407-0.91,0.909-0.91c0.001,0,0.001,0,0.002,0h14.76c0.502-0.001,0.91,0.406,0.91,0.909
			c0.001,0.502-0.407,0.91-0.909,0.91c-0.001,0-0.001,0-0.001,0H97.39z"/>
	</g>
</g>
</svg>
