<?xml version="1.0" encoding="iso-8859-1"?>
<!-- Generator: Adobe Illustrator 16.0.3, SVG Export Plug-In . SVG Version: 6.00 Build 0)  -->
<!DOCTYPE svg PUBLIC "-//W3C//DTD SVG 1.1//EN" "http://www.w3.org/Graphics/SVG/1.1/DTD/svg11.dtd">
<svg version="1.1" id="&#x5716;&#x5C64;_1" xmlns="http://www.w3.org/2000/svg" xmlns:xlink="http://www.w3.org/1999/xlink" x="0px"
	 y="0px" width="39px" height="39px" viewBox="70.5 70.5 39 39" style="enable-background:new 70.5 70.5 39 39;"
	 xml:space="preserve">
<title>btn2</title>
<g id="_icon">
	<g id="_icon-2">
		<path style="fill:#FFFFFF;" d="M82.495,91.419v-2.914c-0.089-2.317-2.012-4.139-4.33-4.104c-2.626,0-4.658,2.154-4.658,4.104
			v2.914c0.054,1.949,0.885,3.797,2.309,5.13l-3.786,2.38c0,0-1.529,0.832-1.529,1.816v0.667c0,0.646,0.821,0.636,1.478,0.636h6.023
			v-2.339c0.07-1.345,0.852-2.55,2.052-3.16C81.518,95.231,82.396,93.386,82.495,91.419z M107.961,99.021l-3.785-2.391
			c1.424-1.333,2.254-3.181,2.309-5.13v-2.996c0-1.929-2.053-4.104-4.658-4.104c-2.318-0.035-4.241,1.787-4.33,4.104v2.914
			c0.102,1.968,0.984,3.814,2.452,5.13c1.2,0.61,1.981,1.815,2.052,3.16v2.391h6.023c0.656,0,1.477,0,1.477-0.636v-0.668
			C109.49,99.761,107.961,99.021,107.961,99.021z M99.168,97.913l-6.689-3.55c1.973-1.702,3.185-4.121,3.365-6.72v-3.837
			c-0.197-3.025-2.736-5.36-5.766-5.305c-3.417,0-6.156,2.791-6.156,5.305v3.786c0.231,2.586,1.447,4.983,3.396,6.699l-6.156,3.407
			c0,0-1.601,0.729-1.601,2.052v0.872c0.027,0.813,0.685,1.461,1.498,1.478h18.037c0.846,0.011,1.539-0.664,1.55-1.509
			c0-0.003,0-0.006,0-0.01v-0.872c0-1.252-1.478-1.847-1.478-1.847V97.913z"/>
	</g>
</g>
</svg>
