<?xml version="1.0" encoding="iso-8859-1"?>
<!-- Generator: Adobe Illustrator 16.0.3, SVG Export Plug-In . SVG Version: 6.00 Build 0)  -->
<!DOCTYPE svg PUBLIC "-//W3C//DTD SVG 1.1//EN" "http://www.w3.org/Graphics/SVG/1.1/DTD/svg11.dtd">
<svg version="1.1" id="&#x5716;&#x5C64;_1" xmlns="http://www.w3.org/2000/svg" xmlns:xlink="http://www.w3.org/1999/xlink" x="0px"
	 y="0px" width="22px" height="22px" viewBox="79 79 22 22" style="enable-background:new 79 79 22 22;" xml:space="preserve">
<title>index</title>
<g id="home">
	<g id="home-2">
		<path style="fill:#FFFFFF;" d="M99.73,89.165l-9.098-8.907c-0.354-0.344-0.917-0.344-1.271,0l-9.097,8.907
			c-0.345,0.334-0.354,0.886-0.02,1.231c0.006,0.007,0.013,0.013,0.02,0.02c0.354,0.345,0.917,0.345,1.271,0l8.477-8.286
			l8.457,8.286c0.354,0.345,0.918,0.345,1.271,0c0.343-0.337,0.347-0.888,0.01-1.231C99.743,89.178,99.736,89.172,99.73,89.165z
			 M96.268,89.756c-0.492-0.006-0.896,0.389-0.901,0.88l0,0v7.606h-2.352v-5.354c-0.005-0.491-0.408-0.886-0.9-0.881l0,0h-4.284
			c-0.492-0.005-0.895,0.389-0.9,0.881l0,0v5.354h-2.302v-7.606c0-0.497-0.403-0.9-0.901-0.9s-0.901,0.403-0.901,0.9v8.487
			c0.006,0.491,0.409,0.886,0.901,0.88l0,0h4.103c0.492,0.006,0.895-0.389,0.901-0.88l0,0v-5.354h2.532v5.354
			c0.005,0.491,0.408,0.886,0.9,0.88l0,0h4.104c0.492,0.006,0.895-0.389,0.9-0.88l0,0v-8.487
			C97.163,90.145,96.76,89.75,96.268,89.756L96.268,89.756z"/>
	</g>
</g>
</svg>
