<?xml version="1.0" encoding="iso-8859-1"?>
<!-- Generator: Adobe Illustrator 16.0.3, SVG Export Plug-In . SVG Version: 6.00 Build 0)  -->
<!DOCTYPE svg PUBLIC "-//W3C//DTD SVG 1.1//EN" "http://www.w3.org/Graphics/SVG/1.1/DTD/svg11.dtd">
<svg version="1.1" id="&#x5716;&#x5C64;_1" xmlns="http://www.w3.org/2000/svg" xmlns:xlink="http://www.w3.org/1999/xlink" x="0px"
	 y="0px" width="39px" height="39px" viewBox="0 0 39 39" style="enable-background:new 0 0 39 39;" xml:space="preserve">
<path style="fill:none;" d="M34.092,10.676c0.226-0.227,0.407-0.41,0.481-0.485c0.952-0.983,1.425-2.005,1.406-3.04
	c-0.017-1.022-0.514-2.007-1.471-2.924c-0.842-0.809-1.772-1.218-2.763-1.218c-1.554,0-2.686,1.003-2.993,1.311
	c-0.049,0.048-0.286,0.284-0.653,0.652L34.092,10.676z"/>
<path style="fill:none;" d="M27.067,6.006c-4.034,4.039-13.88,13.908-13.88,13.908c-0.097,0.099-0.168,0.22-0.204,0.354
	c-0.335,1.24-2.015,6.746-2.032,6.801c-0.086,0.281-0.009,0.589,0.198,0.794c0.149,0.149,0.348,0.229,0.552,0.229
	c0.08,0,0.161-0.012,0.24-0.036c0.057-0.02,5.733-1.856,6.667-2.136c0.123-0.036,0.235-0.104,0.327-0.193
	c0.489-0.483,10.267-10.173,14.125-14.019L27.067,6.006z"/>
<path style="fill:none;" d="M20.188,28.354c-0.444,0.434-0.978,0.748-1.555,0.917c-0.9,0.27-6.16,1.817-6.351,1.879
	c-0.415,0.128-0.783,0.184-1.153,0.184c-0.992,0-1.787-0.296-2.485-0.999c-0.968-0.954-1.328-2.383-0.921-3.711
	c1.082-3.554,1.819-6.021,2.005-6.707c0.16-0.604,0.484-1.174,0.936-1.636c0.015-0.015,11.5-11.495,11.5-11.495H4.946
	c-1.205,0-1.93,0.842-1.93,2.05v24.85c0,1.208,0.726,2.312,1.93,2.312h23.579c1.206,0,2.182-1.042,2.182-2.25l0.028-15.764
	C26.314,22.375,20.573,27.974,20.188,28.354z"/>
</svg>
