<?xml version="1.0" encoding="iso-8859-1"?>
<!-- Generator: Adobe Illustrator 16.0.3, SVG Export Plug-In . SVG Version: 6.00 Build 0)  -->
<!DOCTYPE svg PUBLIC "-//W3C//DTD SVG 1.1//EN" "http://www.w3.org/Graphics/SVG/1.1/DTD/svg11.dtd">
<svg version="1.1" id="&#x5716;&#x5C64;_1" xmlns="http://www.w3.org/2000/svg" xmlns:xlink="http://www.w3.org/1999/xlink" x="0px"
	 y="0px" width="39px" height="39px" viewBox="0 0 39 39" style="enable-background:new 0 0 39 39;" xml:space="preserve">
<path style="fill:none;" d="M7.467,13.773c-2.563,0-4.544,2.096-4.544,3.976v2.84c0,1.241,0.632,3.75,2.254,5.026l-3.689,2.29
	c0,0-1.488,0.813-1.488,1.771v0.655c0,0.628,0.802,0.623,1.442,0.623h5.866v-2.282c0-1.709,1.326-2.705,1.993-3.082
	c1.58-1.25,2.392-3.649,2.392-5v-2.84C11.692,15.869,10.028,13.773,7.467,13.773z"/>
<path style="fill:none;" d="M36.511,27.951l-3.689-2.334c1.622-1.276,2.254-3.785,2.254-5.026v-2.84c0-1.88-1.981-3.976-4.544-3.976
	c-2.561,0-4.225,2.096-4.225,3.976v2.84c0,1.352,0.812,3.75,2.392,5c0.667,0.376,1.992,1.373,1.992,3.082v2.282h5.866
	c0.64,0,1.442,0.005,1.442-0.623v-0.655C38,28.719,36.511,27.951,36.511,27.951z"/>
<path style="fill-rule:evenodd;clip-rule:evenodd;fill:none;" d="M27.869,30.998H10.288c-0.832,0-1.507-0.66-1.507-1.477v-0.85
	c0-1.246,1.561-1.954,1.561-1.954l6.024-3.325c-2.108-1.658-3.312-4.92-3.312-6.533v-3.691c0-2.446,2.7-5.169,6.029-5.169
	s5.617,2.723,5.617,5.169v3.691c0,1.772-1.193,4.936-3.282,6.547l6.523,3.46c0,0,1.436,0.582,1.436,1.805v0.85
	C29.376,30.338,28.702,30.998,27.869,30.998z"/>
</svg>
