<?xml version="1.0" encoding="iso-8859-1"?>
<!-- Generator: Adobe Illustrator 16.0.3, SVG Export Plug-In . SVG Version: 6.00 Build 0)  -->
<!DOCTYPE svg PUBLIC "-//W3C//DTD SVG 1.1//EN" "http://www.w3.org/Graphics/SVG/1.1/DTD/svg11.dtd">
<svg version="1.1" id="&#x5716;&#x5C64;_1" xmlns="http://www.w3.org/2000/svg" xmlns:xlink="http://www.w3.org/1999/xlink" x="0px"
	 y="0px" width="39px" height="39px" viewBox="0 0 39 39" style="enable-background:new 0 0 39 39;" xml:space="preserve">
<path style="fill:none;" d="M28.135,6.367h-9.19H9.755c0,0-0.072,9.725,2.154,12.74c1.57,2.127,4.955,1.155,5.205,3.747
	c0.25,2.592,0,2.688,0,3.942c0,1.254-1.84,1.794-3.345,2.713c-1.505,0.92-1.338,2.129-1.338,2.129h6.658h0.623h5.748
	c0,0,0.167-1.209-1.338-2.129c-1.505-0.919-3.345-1.459-3.345-2.713c0-1.254-0.25-1.35,0-3.942c0.25-2.591,3.634-1.62,5.205-3.747
	C28.207,16.092,28.135,6.367,28.135,6.367z"/>
<path style="fill:none;" d="M27.608,17.953c-0.904,0-2.108-0.423-3.075-2.26l2.033-1.07c0.682,1.291,1.177,1.052,1.445,0.922
	c1.629-0.795,2.979-4.28,2.651-5.009c-0.735-0.687-2.604,0.497-3.058,0.856l-1.429-1.799c1.381-1.098,4.223-2.473,6.128-0.649
	c0.83,0.794,0.916,2.264,0.238,4.135c-0.811,2.242-2.637,4.723-4.73,4.867C27.746,17.949,27.677,17.953,27.608,17.953z"/>
<path style="fill:none;" d="M10.391,17.953c0.904,0,2.108-0.423,3.075-2.26l-2.033-1.07c-0.682,1.291-1.177,1.052-1.445,0.922
	c-1.628-0.795-2.978-4.28-2.65-5.009c0.734-0.687,2.604,0.497,3.058,0.856l1.429-1.799c-1.381-1.098-4.222-2.473-6.128-0.649
	c-0.83,0.794-0.915,2.264-0.238,4.135c0.811,2.242,2.638,4.723,4.731,4.867C10.254,17.949,10.323,17.953,10.391,17.953z"/>
</svg>
