<?xml version="1.0" encoding="iso-8859-1"?>
<!-- Generator: Adobe Illustrator 16.0.3, SVG Export Plug-In . SVG Version: 6.00 Build 0)  -->
<!DOCTYPE svg PUBLIC "-//W3C//DTD SVG 1.1//EN" "http://www.w3.org/Graphics/SVG/1.1/DTD/svg11.dtd">
<svg version="1.1" id="&#x5716;&#x5C64;_1" xmlns="http://www.w3.org/2000/svg" xmlns:xlink="http://www.w3.org/1999/xlink" x="0px"
	 y="0px" width="22px" height="23px" viewBox="79 78.5 22 23" style="enable-background:new 79 78.5 22 23;" xml:space="preserve">
<title>mark</title>
<g id="icon">
	<g id="icon-2">
		<path style="fill:#FFFFFF;" d="M89.13,88.93c2.251-2.248,2.253-5.895,0.004-8.146c-0.001-0.001-0.003-0.002-0.004-0.004l-2-2
			L79,86.94l2,2c2.248,2.25,5.896,2.252,8.146,0.004c0.001-0.001,0.002-0.003,0.004-0.004L89.13,88.93z M81,86.94l6.16-6.11l1,1
			c1.679,1.701,1.661,4.441-0.04,6.12c-1.701,1.679-4.441,1.661-6.12-0.04l0,0L81,86.94z M99.38,87.28l-6.771-3.78l-0.699,1.26
			l6.16,3.42l1.17,10.32l-4.5-4.25c0.258-0.434,0.395-0.927,0.4-1.43c0-1.592-1.29-2.88-2.881-2.88c-1.59,0-2.88,1.289-2.88,2.88
			c0,1.59,1.29,2.879,2.88,2.879c0.52-0.003,1.027-0.148,1.471-0.42l4.18,3.951L87,97.18l-2-5.38l-1.35,0.511L86,98.449l15,2.771
			L99.38,87.28z M92.221,94.21c-0.796,0-1.44-0.646-1.44-1.44s0.645-1.439,1.44-1.439c0.795,0,1.439,0.645,1.439,1.439
			c0.006,0.784-0.617,1.429-1.4,1.45L92.221,94.21z"/>
	</g>
</g>
</svg>
